<svg xmlns="http://www.w3.org/2000/svg" width="90" height="27" viewBox="0 0 90 27">
  <text id="crypTones" transform="translate(0 21)" font-size="22" font-family="BodoniSvtyTwoSCITCTT-Book, 'Bodoni \37 2 Smallcaps'"><tspan x="0" y="0">crypTones</tspan></text>
  <path id="crypTones_-_Outline" data-name="crypTones - Outline" d="M82.434.7a.689.689,0,0,1-.72-.72c0-.038,0-.071.069-.713a9.691,9.691,0,0,0,.063-1c0-.121-.007-.3-.021-.531-.015-.254-.023-.448-.023-.591,0-.874.6-.918.72-.918.644,0,.779.824.823,1.1.237,1.366.9,2,2.1,2,.957,0,1.348-.391,1.348-1.348a1.447,1.447,0,0,0-.317-.992,5.24,5.24,0,0,0-1.562-1.025,8.949,8.949,0,0,1-2.272-1.422l0,0a2.73,2.73,0,0,1-.728-1.925A3.036,3.036,0,0,1,82.96-9.757a3.723,3.723,0,0,1,2.554-.907,4.1,4.1,0,0,1,1.728.42.727.727,0,0,1,.692-.486.689.689,0,0,1,.72.72,1.563,1.563,0,0,1-.027.247,7.157,7.157,0,0,0-.039.831c0,.2.021.576.062,1.114a1.359,1.359,0,0,1,.026.272A.69.69,0,0,1,88-6.782c-.224,0-.622-.1-.774-.788l0-.008a2.387,2.387,0,0,0-.66-1.291,1.484,1.484,0,0,0-1.072-.443c-.77,0-1.084.346-1.084,1.194a1.324,1.324,0,0,0,.3.905l.006.007a1.35,1.35,0,0,0,.352.306c.113.066.465.249,1.505.752a7.369,7.369,0,0,1,2.175,1.466,2.686,2.686,0,0,1,.725,1.867,3.155,3.155,0,0,1-1.236,2.5,4.359,4.359,0,0,1-2.872,1A4.83,4.83,0,0,1,83.153.1q-.007.032-.016.062A.7.7,0,0,1,82.434.7Zm.935-6.849a8.126,8.126,0,0,0,1.994,1.216,6.216,6.216,0,0,1,1.87,1.263A2.432,2.432,0,0,1,87.8-2.024a3.2,3.2,0,0,1-.106.851,2.131,2.131,0,0,0,.778-1.643,1.692,1.692,0,0,0-.463-1.191,6.554,6.554,0,0,0-1.876-1.242c-.867-.419-1.382-.676-1.571-.787a2.342,2.342,0,0,1-.613-.526,2.311,2.311,0,0,1-.537-1.556,3.126,3.126,0,0,1,.088-.769,2.044,2.044,0,0,0-.584,1.5A1.739,1.739,0,0,0,83.369-6.151ZM56.452.676A5.321,5.321,0,0,1,52.5-.983a5.6,5.6,0,0,1-1.6-4.033A5.609,5.609,0,0,1,52.43-9.071a5.266,5.266,0,0,1,3.934-1.593A5.035,5.035,0,0,1,60.2-9a5.786,5.786,0,0,1,1.53,4.069,5.617,5.617,0,0,1-1.52,3.96A4.959,4.959,0,0,1,56.452.676ZM56.3-9.334a1.947,1.947,0,0,0-1.87,1.451A7.841,7.841,0,0,0,53.96-4.95a6.266,6.266,0,0,0,.717,3.278,1.979,1.979,0,0,0,1.775,1.04c2.206,0,2.206-3.184,2.206-4.23A6.46,6.46,0,0,0,57.715-8.6,1.6,1.6,0,0,0,56.3-9.334Zm-2.423.355a4.284,4.284,0,0,0-.727.6,4.584,4.584,0,0,0-1.256,3.359,4.569,4.569,0,0,0,1.322,3.337,4.829,4.829,0,0,0,.615.538l0,0A7.214,7.214,0,0,1,52.96-4.95,8.811,8.811,0,0,1,53.5-8.264,4.424,4.424,0,0,1,53.875-8.979Zm4.762-.042a7.588,7.588,0,0,1,1.021,4.16,8,8,0,0,1-.673,3.669,4.721,4.721,0,0,0,.49-.457,4.587,4.587,0,0,0,1.252-3.278,4.754,4.754,0,0,0-1.264-3.389A4.438,4.438,0,0,0,58.637-9.022ZM18.568.676A2.888,2.888,0,0,1,16.247-.407a2.652,2.652,0,0,1-.537-.977,13.478,13.478,0,0,1-.279-1.949,1.394,1.394,0,0,0-.409-.976,1.9,1.9,0,0,0-.9-.278V-.821a4.285,4.285,0,0,0,.622.035.669.669,0,0,1,.742.654c0,.067-.023.654-.808.654-.168,0-.331-.007-.486-.022h-.746c-.316,0-.7.007-1.15.022h-1.16a2.452,2.452,0,0,1-.583-.053.628.628,0,0,1-.533-.6.668.668,0,0,1,.72-.676,1.946,1.946,0,0,1,.255.022h.053A2.006,2.006,0,0,0,11.292-.8V-9.173c-.063,0-.148-.007-.259-.007-.885,0-1.017-.424-1.017-.676,0-.067.023-.654.808-.654h.185l.031,0c.147.018.617.04,2.028.04.474,0,.866-.007,1.164-.021.319-.015.564-.023.75-.023a4.642,4.642,0,0,1,2.646.691,2.359,2.359,0,0,1,1.11,2.009,2.538,2.538,0,0,1-1.157,2.157,3.942,3.942,0,0,1-.8.432,2.674,2.674,0,0,1,.76.575A5.344,5.344,0,0,1,18.56-1.589c.014.142.032.264.052.369a.944.944,0,0,1,.7-.27.912.912,0,0,1,.984.962,1.07,1.07,0,0,1-.56.962A2.353,2.353,0,0,1,18.568.676Zm-2.4-5.083a3.157,3.157,0,0,1,.253.961v.006a14.206,14.206,0,0,0,.248,1.788,1.671,1.671,0,0,0,.342.606,1.936,1.936,0,0,0,.788.587,3.416,3.416,0,0,1-.24-1.033A4.388,4.388,0,0,0,16.8-3.978,1.838,1.838,0,0,0,16.172-4.407ZM12.279-9.469a1.241,1.241,0,0,1,.013.185v8.69a.8.8,0,0,1-.008.115c.307-.01.586-.016.834-.019a.638.638,0,0,1,0-.13V-9.086a1.836,1.836,0,0,1,.034-.38h-.084C12.764-9.466,12.5-9.467,12.279-9.469Zm1.84.32c0,.019,0,.04,0,.063V-6c1.5-.145,1.706-.959,1.706-1.677,0-1.037-.436-1.48-1.458-1.48C14.257-9.158,14.177-9.154,14.119-9.149Zm2.236-.177a2.683,2.683,0,0,1,.469,1.648,2.76,2.76,0,0,1-.4,1.523A2.943,2.943,0,0,0,17-6.469a1.55,1.55,0,0,0,.735-1.341,1.349,1.349,0,0,0-.672-1.181A2.671,2.671,0,0,0,16.355-9.326ZM5.808.676A5.5,5.5,0,0,1,1.757-.957,5.582,5.582,0,0,1,.138-5.038a5.65,5.65,0,0,1,1.5-4.029,5.079,5.079,0,0,1,3.839-1.6,5.053,5.053,0,0,1,2.771.747A.828.828,0,0,1,9-10.488a.643.643,0,0,1,.654.676,1.206,1.206,0,0,1-.055.3,14.948,14.948,0,0,0-.144,2.126,3.686,3.686,0,0,1-.088.812c-.143.545-.505.6-.654.6-.176,0-.6-.071-.732-.732v-.007A5.949,5.949,0,0,0,7.5-8.317a1.938,1.938,0,0,0-1.872-.995A1.924,1.924,0,0,0,3.925-8.254a6.284,6.284,0,0,0-.719,3.26A5.741,5.741,0,0,0,4-1.755,2.243,2.243,0,0,0,5.962-.676a2.045,2.045,0,0,0,1.544-.629,3.547,3.547,0,0,0,.867-1.9l0-.008c.046-.242.188-.978.777-.978.12,0,.72.044.72.918,0,.042,0,.123-.023.41-.058.777-.087,1.327-.087,1.636,0,.2.021.51.063.917l0,.026v.18a.668.668,0,0,1-.676.72c-.32,0-.586-.213-.791-.633A4.46,4.46,0,0,1,5.808.676ZM3.316-9.134a4.11,4.11,0,0,0-.951.755A4.623,4.623,0,0,0,1.138-5.038,4.557,4.557,0,0,0,2.467-1.661a4.59,4.59,0,0,0,.866.69q-.083-.107-.161-.222a6.7,6.7,0,0,1-.966-3.8,7.239,7.239,0,0,1,.865-3.78A4.2,4.2,0,0,1,3.316-9.134ZM70.466.632c-.3,0-.541-.222-.891-.631-.268-.313-.63-.785-1.076-1.4l-.017-.024c-.093-.146-.246-.355-.455-.619L68-2.077c-.011-.016-.055-.079-.226-.307-.609-.8-1.644-2.217-3.082-4.208V-1.21a2.922,2.922,0,0,0,.021.388c.118.008.295.014.557.014h.088a.673.673,0,0,1,.764.654c0,.2-.1.676-.984.676-.034,0-.105,0-.76-.045-.207-.014-.4-.021-.56-.021-.129,0-.261.007-.39.02a9.173,9.173,0,0,1-.952.046c-.828,0-.852-.607-.852-.676,0-.2.089-.654.918-.654h.179l.267-.021L63.1-.84c0-.079,0-.184,0-.326v-6.05a5.6,5.6,0,0,0-.129-1.727c-.1-.16-.383-.193-.6-.193-.914,0-1.05-.437-1.05-.7,0-.243.166-.654.786-.654h.1l1.205.022h.257c.153-.015.294-.022.42-.022h1.068L69.592-4.4v-4.58c0-.09,0-.164,0-.225a2.868,2.868,0,0,0-.294.017l-.031,0H69.1c-.852,0-.918-.517-.918-.676a.648.648,0,0,1,.657-.629c.109-.012.383-.025,1.537-.025,1.1,0,1.358.013,1.463.025a.7.7,0,0,1,.569.354.743.743,0,0,1,.718-.379l1.013,0,.219.02h.527c.048,0,.275,0,1.089-.022h3.729a7.911,7.911,0,0,0,.888-.041l.558-.066v.7l.02.3c.031.243.088.886.175,1.963a1.9,1.9,0,0,1,.026.33c0,.62-.411.786-.654.786-.227,0-.63-.109-.776-.842v-.007c-.116-.629-.354-1.412-.829-1.573a9.234,9.234,0,0,0-2.133-.129h-.622v3.114h.028a3.92,3.92,0,0,0,1.449-.14,1.847,1.847,0,0,0,.232-.909,2.144,2.144,0,0,1,.137-.606.672.672,0,0,1,.625-.457c.12,0,.72.045.72.94,0,.188-.011.464-.034.844-.021.355-.032.626-.032.806a18.642,18.642,0,0,0,.062,1.9,2.859,2.859,0,0,1,.026.348c0,.629-.388.852-.72.852a.674.674,0,0,1-.616-.421,1.831,1.831,0,0,1-.145-.569,2.715,2.715,0,0,0-.249-1.08,4.3,4.3,0,0,0-1.432-.13h-.05V-.856a19.562,19.562,0,0,0,3.176-.154c.347-.1.584-.688.665-1.667a.753.753,0,0,1,.741-.792c.269,0,.72.142.72,1.094,0,.025,0,.044-.024.318-.013.154-.02.291-.02.408v.009L81.592-.392c0,.131.007.279.02.438L81.658.6l-4.2-.076L73.285.544A1.6,1.6,0,0,1,72.777.48a.621.621,0,0,1-.457-.59.69.69,0,0,1,.764-.676c.206,0,.344-.007.435-.015.006-.069.011-.166.011-.3V-8.668c0-.239-.009-.4-.019-.5-.093,0-.223-.009-.405-.009a.711.711,0,0,1-.693-.362c-.1.192-.347.384-.913.384-.041,0-.111,0-.313-.02,0,.051,0,.111,0,.18V-.924A7.818,7.818,0,0,1,71.157.082.658.658,0,0,1,70.466.632Zm4.01-10.12a4.416,4.416,0,0,1,.054.82V-1.1a3.111,3.111,0,0,1-.05.638l.876,0V-9.5c-.4.008-.447.008-.468.008ZM69.317-1.975c.389.537.669.9.868,1.147,0-.031,0-.063,0-.1v-.958l-5.54-7.606h-.56c-.071,0-.151,0-.237.01L64.6-8.432c1.91,2.654,3.247,4.486,3.975,5.446.158.21.218.294.247.336C69.045-2.369,69.207-2.148,69.317-1.975ZM46.882.522A2.442,2.442,0,0,1,46.527.5C45.672.47,45.059.456,44.7.456c-.476,0-.929.007-1.347.022S42.375.5,41.712.5a1.655,1.655,0,0,1-.544-.072.64.64,0,0,1-.462-.6c0-.149.061-.51.623-.641A4.183,4.183,0,0,1,42.14-.9h.012A1.092,1.092,0,0,0,42.6-.961a3.367,3.367,0,0,0,.038-.623v-12.67a7.949,7.949,0,0,0-2.03.18c-.741.27-1.167,1.02-1.307,2.293a2.041,2.041,0,0,1-.154.652.71.71,0,0,1-.651.454c-.128,0-.764-.046-.764-.962,0-.176.008-.354.024-.529l.043-.5c.044-.673.111-1.57.2-2.664l.037-.46H39.5l4.495.066c.171,0,.376.007.612.007.476,0,1.09-.01,1.825-.029l4.147-.075.018.491c.029.807.124,2.025.284,3.62l0,.05a.509.509,0,0,0,.01.057,1.016,1.016,0,0,1,.034.229.742.742,0,0,1-.764.786c-.309,0-.71-.17-.865-.978l-.006-.039-.086-.771a3.33,3.33,0,0,0-.433-1.148,1.677,1.677,0,0,0-1.189-.7,4.308,4.308,0,0,0-.982-.1H46.6c-.341.015-.592.026-.775.036V-1.5c0,.329.066.507.132.538h0a4.486,4.486,0,0,0,1.029.084l.031,0a.7.7,0,0,1,.722.7C47.734.146,47.511.522,46.882.522Zm-3.24-15.251V-1.584a2.871,2.871,0,0,1-.129,1.056c.375-.011.775-.016,1.191-.016l.314,0a2.026,2.026,0,0,1-.2-.955V-14.717c-.338,0-.623,0-.853-.007Zm-4.68-.061q-.04.508-.073.95a2.654,2.654,0,0,1,.906-.946l-.308,0Zm9.921,0a2.346,2.346,0,0,1,.731.728q.03.046.058.094-.034-.458-.055-.835ZM32.252.522C30.56.522,30.178.509,30.038.5c-.717-.051-.772-.513-.772-.653a.63.63,0,0,1,.72-.652l.28.019.271-.024c0-.087,0-.2,0-.355v-7.37c0-.308,0-.507,0-.635-.055-.005-.127-.009-.221-.009H30.03a.815.815,0,0,1-.431-.11,1.092,1.092,0,0,1-.367.086,2.25,2.25,0,0,0-.693.127,11.334,11.334,0,0,0-.856,1.556c-.456.928-.921,1.8-1.38,2.581a2.539,2.539,0,0,0-.274.538A4.127,4.127,0,0,0,26-3.7V-.968c0,.035,0,.066,0,.092.109.014.284.031.561.047.783.044.867.487.867.675,0,.067-.023.654-.808.654h-.156l-.45-.021h-.56c-.125,0-.338-.007-.65-.022h-.611l-.068,0-.258.016c-.254.015-.62.023-1.119.023h-.22c-.62,0-.786-.411-.786-.654a.643.643,0,0,1,.516-.616,2.424,2.424,0,0,1,.616-.082c.161-.005.274-.015.352-.024.007-.082.012-.2.012-.379V-4.061c-.083-.164-.2-.382-.335-.65L21.383-7.4q-.331-.617-.529-.992c-.115-.217-.249-.46-.4-.724a2.539,2.539,0,0,0-.728-.088.683.683,0,0,1-.779-.654.641.641,0,0,1,.294-.548l0-.128h.489v.33h.012l.026-.328.4.021c.284.014.586.021.9.021h.68l1.913-.021a1.79,1.79,0,0,1,.289-.023c.807,0,.83.607.83.676a.625.625,0,0,1-.513.6,2.182,2.182,0,0,1-.559.056c-.109,0-.2,0-.268.009.182.385.628,1.227,1.7,3.068.949-1.769,1.395-2.641,1.6-3.071L26.628-9.2h-.184c-.832,0-.874-.563-.874-.676,0-.153.063-.654.874-.654h.013l.841.022.511-.021c.242-.01.461-.015.652-.015a4.919,4.919,0,0,1,.856.056,1.164,1.164,0,0,1,.309.1.99.99,0,0,1,.359-.095c.114-.01.413-.024,1.7-.024a29.683,29.683,0,0,1,3.539.117c2.27.386,2.747,1.737,2.747,2.8a2.8,2.8,0,0,1-1.191,2.348,4.742,4.742,0,0,1-2.895.836c-.117,0-.286-.009-.512-.029V-.99a1.2,1.2,0,0,0,.011.175,5.6,5.6,0,0,0,.633.029.669.669,0,0,1,.742.654c0,.095-.034.571-.71.63C33.926.508,33.612.522,32.252.522Zm-.732-1h.912a1.844,1.844,0,0,1-.064-.512V-9.064a1.874,1.874,0,0,1,.045-.444l-.733,0h-.158c.013.12.02.365.02.974v7.37C31.542-.836,31.536-.625,31.52-.479ZM24.663-.544h.177l.2.009A2.038,2.038,0,0,1,25-.968V-3.7c0-.323.009-.533.021-.676l-.282-.479c-2.4-4.077-2.4-4.348-2.4-4.566a.626.626,0,0,1,.005-.079l-.583.007h-.365c.128.227.243.438.345.63q.2.372.524.983l1.523,2.694c.176.338.311.6.4.778l.053.106v3.044a3.771,3.771,0,0,1-.049.71ZM35.609-9.277a2.984,2.984,0,0,1,.443,1.709,2.7,2.7,0,0,1-.682,1.941,2.919,2.919,0,0,0,.807-.417,1.822,1.822,0,0,0,.789-1.546A1.627,1.627,0,0,0,35.609-9.277Zm-2.239.13c0,.024,0,.051,0,.083V-5.8c1.48-.153,1.684-1.009,1.684-1.764,0-1.4-.693-1.59-1.37-1.59C33.541-9.158,33.44-9.153,33.37-9.147Z" transform="translate(0 21)"/>
</svg>

